  0
SECTION
  2
HEADER
  9
$ACADVER
  1
AC1027
  9
$ACADMAINTVER
 70
105
  9
$DWGCODEPAGE
  3
ANSI_1252
  9
$LASTSAVEDBY
  1
ezdxf
  9
$REQUIREDVERSIONS
160
0
  9
$INSBASE
 10
0.0
 20
0.0
 30
0.0
  9
$EXTMIN
 10
1e+20
 20
1e+20
 30
1e+20
  9
$EXTMAX
 10
-1e+20
 20
-1e+20
 30
-1e+20
  9
$LIMMIN
 10
0.0
 20
0.0
  9
$LIMMAX
 10
420.0
 20
297.0
  9
$ORTHOMODE
 70
0
  9
$REGENMODE
 70
1
  9
$FILLMODE
 70
1
  9
$QTEXTMODE
 70
0
  9
$MIRRTEXT
 70
1
  9
$LTSCALE
 40
1.0
  9
$ATTMODE
 70
1
  9
$TEXTSIZE
 40
2.5
  9
$TRACEWID
 40
1.0
  9
$TEXTSTYLE
  7
Standard
  9
$CLAYER
  8
0
  9
$CELTYPE
  6
ByLayer
  9
$CECOLOR
 62
256
  9
$CELTSCALE
 40
1.0
  9
$DISPSILH
 70
0
  9
$DIMSCALE
 40
1.0
  9
$DIMASZ
 40
2.5
  9
$DIMEXO
 40
0.625
  9
$DIMDLI
 40
3.75
  9
$DIMRND
 40
0.0
  9
$DIMDLE
 40
0.0
  9
$DIMEXE
 40
1.25
  9
$DIMTP
 40
0.0
  9
$DIMTM
 40
0.0
  9
$DIMTXT
 40
2.5
  9
$DIMCEN
 40
2.5
  9
$DIMTSZ
 40
0.0
  9
$DIMTOL
 70
0
  9
$DIMLIM
 70
0
  9
$DIMTIH
 70
0
  9
$DIMTOH
 70
0
  9
$DIMSE1
 70
0
  9
$DIMSE2
 70
0
  9
$DIMTAD
 70
1
  9
$DIMZIN
 70
8
  9
$DIMBLK
  1

  9
$DIMASO
 70
1
  9
$DIMSHO
 70
1
  9
$DIMPOST
  1

  9
$DIMAPOST
  1

  9
$DIMALT
 70
0
  9
$DIMALTD
 70
3
  9
$DIMALTF
 40
0.03937007874
  9
$DIMLFAC
 40
1.0
  9
$DIMTOFL
 70
1
  9
$DIMTVP
 40
0.0
  9
$DIMTIX
 70
0
  9
$DIMSOXD
 70
0
  9
$DIMSAH
 70
0
  9
$DIMBLK1
  1

  9
$DIMBLK2
  1

  9
$DIMSTYLE
  2
ISO-25
  9
$DIMCLRD
 70
0
  9
$DIMCLRE
 70
0
  9
$DIMCLRT
 70
0
  9
$DIMTFAC
 40
1.0
  9
$DIMGAP
 40
0.625
  9
$DIMJUST
 70
0
  9
$DIMSD1
 70
0
  9
$DIMSD2
 70
0
  9
$DIMTOLJ
 70
0
  9
$DIMTZIN
 70
8
  9
$DIMALTZ
 70
0
  9
$DIMALTTZ
 70
0
  9
$DIMUPT
 70
0
  9
$DIMDEC
 70
2
  9
$DIMTDEC
 70
2
  9
$DIMALTU
 70
2
  9
$DIMALTTD
 70
3
  9
$DIMTXSTY
  7
Standard
  9
$DIMAUNIT
 70
0
  9
$DIMADEC
 70
0
  9
$DIMALTRND
 40
0.0
  9
$DIMAZIN
 70
0
  9
$DIMDSEP
 70
44
  9
$DIMATFIT
 70
3
  9
$DIMFRAC
 70
0
  9
$DIMLDRBLK
  1

  9
$DIMLUNIT
 70
2
  9
$DIMLWD
 70
-2
  9
$DIMLWE
 70
-2
  9
$DIMTMOVE
 70
0
  9
$DIMFXL
 40
1.0
  9
$DIMFXLON
 70
0
  9
$DIMJOGANG
 40
0.785398163397
  9
$DIMTFILL
 70
0
  9
$DIMTFILLCLR
 70
0
  9
$DIMARCSYM
 70
0
  9
$DIMLTYPE
  6

  9
$DIMLTEX1
  6

  9
$DIMLTEX2
  6

  9
$DIMTXTDIRECTION
 70
0
  9
$LUNITS
 70
2
  9
$LUPREC
 70
4
  9
$SKETCHINC
 40
1.0
  9
$FILLETRAD
 40
10.0
  9
$AUNITS
 70
0
  9
$AUPREC
 70
2
  9
$MENU
  1
.
  9
$ELEVATION
 40
0.0
  9
$PELEVATION
 40
0.0
  9
$THICKNESS
 40
0.0
  9
$LIMCHECK
 70
0
  9
$CHAMFERA
 40
0.0
  9
$CHAMFERB
 40
0.0
  9
$CHAMFERC
 40
0.0
  9
$CHAMFERD
 40
0.0
  9
$SKPOLY
 70
0
  9
$TDCREATE
 40
2460757.7274421295
  9
$TDUCREATE
 40
2458532.153996898
  9
$TDUPDATE
 40
2460757.7274421295
  9
$TDUUPDATE
 40
2458532.1544311
  9
$TDINDWG
 40
0.0
  9
$TDUSRTIMER
 40
0.0
  9
$USRTIMER
 70
1
  9
$ANGBASE
 50
0.0
  9
$ANGDIR
 70
0
  9
$PDMODE
 70
0
  9
$PDSIZE
 40
0.0
  9
$PLINEWID
 40
0.0
  9
$SPLFRAME
 70
0
  9
$SPLINETYPE
 70
6
  9
$SPLINESEGS
 70
8
  9
$HANDSEED
  5
3E
  9
$SURFTAB1
 70
6
  9
$SURFTAB2
 70
6
  9
$SURFTYPE
 70
6
  9
$SURFU
 70
6
  9
$SURFV
 70
6
  9
$UCSBASE
  2

  9
$UCSNAME
  2

  9
$UCSORG
 10
0.0
 20
0.0
 30
0.0
  9
$UCSXDIR
 10
1.0
 20
0.0
 30
0.0
  9
$UCSYDIR
 10
0.0
 20
1.0
 30
0.0
  9
$UCSORTHOREF
  2

  9
$UCSORTHOVIEW
 70
0
  9
$UCSORGTOP
 10
0.0
 20
0.0
 30
0.0
  9
$UCSORGBOTTOM
 10
0.0
 20
0.0
 30
0.0
  9
$UCSORGLEFT
 10
0.0
 20
0.0
 30
0.0
  9
$UCSORGRIGHT
 10
0.0
 20
0.0
 30
0.0
  9
$UCSORGFRONT
 10
0.0
 20
0.0
 30
0.0
  9
$UCSORGBACK
 10
0.0
 20
0.0
 30
0.0
  9
$PUCSBASE
  2

  9
$PUCSNAME
  2

  9
$PUCSORG
 10
0.0
 20
0.0
 30
0.0
  9
$PUCSXDIR
 10
1.0
 20
0.0
 30
0.0
  9
$PUCSYDIR
 10
0.0
 20
1.0
 30
0.0
  9
$PUCSORTHOREF
  2

  9
$PUCSORTHOVIEW
 70
0
  9
$PUCSORGTOP
 10
0.0
 20
0.0
 30
0.0
  9
$PUCSORGBOTTOM
 10
0.0
 20
0.0
 30
0.0
  9
$PUCSORGLEFT
 10
0.0
 20
0.0
 30
0.0
  9
$PUCSORGRIGHT
 10
0.0
 20
0.0
 30
0.0
  9
$PUCSORGFRONT
 10
0.0
 20
0.0
 30
0.0
  9
$PUCSORGBACK
 10
0.0
 20
0.0
 30
0.0
  9
$USERI1
 70
0
  9
$USERI2
 70
0
  9
$USERI3
 70
0
  9
$USERI4
 70
0
  9
$USERI5
 70
0
  9
$USERR1
 40
0.0
  9
$USERR2
 40
0.0
  9
$USERR3
 40
0.0
  9
$USERR4
 40
0.0
  9
$USERR5
 40
0.0
  9
$WORLDVIEW
 70
1
  9
$SHADEDGE
 70
3
  9
$SHADEDIF
 70
70
  9
$TILEMODE
 70
1
  9
$MAXACTVP
 70
64
  9
$PINSBASE
 10
0.0
 20
0.0
 30
0.0
  9
$PLIMCHECK
 70
0
  9
$PEXTMIN
 10
1e+20
 20
1e+20
 30
1e+20
  9
$PEXTMAX
 10
-1e+20
 20
-1e+20
 30
-1e+20
  9
$PLIMMIN
 10
0.0
 20
0.0
  9
$PLIMMAX
 10
420.0
 20
297.0
  9
$UNITMODE
 70
0
  9
$VISRETAIN
 70
1
  9
$PLINEGEN
 70
0
  9
$PSLTSCALE
 70
1
  9
$TREEDEPTH
 70
3020
  9
$CMLSTYLE
  2
Standard
  9
$CMLJUST
 70
0
  9
$CMLSCALE
 40
20.0
  9
$PROXYGRAPHICS
 70
1
  9
$MEASUREMENT
 70
1
  9
$CELWEIGHT
370
-1
  9
$ENDCAPS
280
0
  9
$JOINSTYLE
280
0
  9
$LWDISPLAY
290
0
  9
$INSUNITS
 70
6
  9
$HYPERLINKBASE
  1

  9
$STYLESHEET
  1

  9
$XEDIT
290
1
  9
$CEPSNTYPE
380
0
  9
$PSTYLEMODE
290
1
  9
$FINGERPRINTGUID
  2
{96A49758-04AF-4AB5-B0B9-C8ECB74E5FCC}
  9
$VERSIONGUID
  2
{A5551D7F-20B7-45A5-AC1F-CCE91DC33288}
  9
$EXTNAMES
290
1
  9
$PSVPSCALE
 40
0.0
  9
$OLESTARTUP
290
0
  9
$SORTENTS
280
127
  9
$INDEXCTL
280
0
  9
$HIDETEXT
280
1
  9
$XCLIPFRAME
280
1
  9
$HALOGAP
280
0
  9
$OBSCOLOR
 70
257
  9
$OBSLTYPE
280
0
  9
$INTERSECTIONDISPLAY
280
0
  9
$INTERSECTIONCOLOR
 70
257
  9
$DIMASSOC
280
2
  9
$PROJECTNAME
  1

  9
$CAMERADISPLAY
290
0
  9
$LENSLENGTH
 40
50.0
  9
$CAMERAHEIGHT
 40
0.0
  9
$STEPSPERSEC
 40
24.0
  9
$STEPSIZE
 40
100.0
  9
$3DDWFPREC
 40
2.0
  9
$PSOLWIDTH
 40
0.005
  9
$PSOLHEIGHT
 40
0.08
  9
$LOFTANG1
 40
1.570796326795
  9
$LOFTANG2
 40
1.570796326795
  9
$LOFTMAG1
 40
0.0
  9
$LOFTMAG2
 40
0.0
  9
$LOFTPARAM
 70
7
  9
$LOFTNORMALS
280
1
  9
$LATITUDE
 40
37.795
  9
$LONGITUDE
 40
-122.394
  9
$NORTHDIRECTION
 40
0.0
  9
$TIMEZONE
 70
-8000
  9
$LIGHTGLYPHDISPLAY
280
1
  9
$TILEMODELIGHTSYNCH
280
1
  9
$CMATERIAL
347
20
  9
$SOLIDHIST
280
0
  9
$SHOWHIST
280
1
  9
$DWFFRAME
280
2
  9
$DGNFRAME
280
2
  9
$REALWORLDSCALE
290
1
  9
$INTERFERECOLOR
 62
256
  9
$CSHADOW
280
0
  9
$SHADOWPLANELOCATION
 40
0.0
  0
ENDSEC
  0
SECTION
  2
CLASSES
  0
CLASS
  1
ACDBDICTIONARYWDFLT
  2
AcDbDictionaryWithDefault
  3
ObjectDBX Classes
 90
0
 91
0
280
0
281
0
  0
CLASS
  1
SUN
  2
AcDbSun
  3
SCENEOE
 90
1153
 91
0
280
0
281
0
  0
CLASS
  1
VISUALSTYLE
  2
AcDbVisualStyle
  3
ObjectDBX Classes
 90
4095
 91
0
280
0
281
0
  0
CLASS
  1
MATERIAL
  2
AcDbMaterial
  3
ObjectDBX Classes
 90
1153
 91
0
280
0
281
0
  0
CLASS
  1
SCALE
  2
AcDbScale
  3
ObjectDBX Classes
 90
1153
 91
0
280
0
281
0
  0
CLASS
  1
TABLESTYLE
  2
AcDbTableStyle
  3
ObjectDBX Classes
 90
4095
 91
0
280
0
281
0
  0
CLASS
  1
MLEADERSTYLE
  2
AcDbMLeaderStyle
  3
ACDB_MLEADERSTYLE_CLASS
 90
4095
 91
0
280
0
281
0
  0
CLASS
  1
DICTIONARYVAR
  2
AcDbDictionaryVar
  3
ObjectDBX Classes
 90
0
 91
0
280
0
281
0
  0
CLASS
  1
CELLSTYLEMAP
  2
AcDbCellStyleMap
  3
ObjectDBX Classes
 90
1152
 91
0
280
0
281
0
  0
CLASS
  1
MENTALRAYRENDERSETTINGS
  2
AcDbMentalRayRenderSettings
  3
SCENEOE
 90
1024
 91
0
280
0
281
0
  0
CLASS
  1
ACDBDETAILVIEWSTYLE
  2
AcDbDetailViewStyle
  3
ObjectDBX Classes
 90
1025
 91
0
280
0
281
0
  0
CLASS
  1
ACDBSECTIONVIEWSTYLE
  2
AcDbSectionViewStyle
  3
ObjectDBX Classes
 90
1025
 91
0
280
0
281
0
  0
CLASS
  1
RASTERVARIABLES
  2
AcDbRasterVariables
  3
ISM
 90
0
 91
0
280
0
281
0
  0
CLASS
  1
ACDBPLACEHOLDER
  2
AcDbPlaceHolder
  3
ObjectDBX Classes
 90
0
 91
0
280
0
281
0
  0
CLASS
  1
LAYOUT
  2
AcDbLayout
  3
ObjectDBX Classes
 90
0
 91
0
280
0
281
0
  0
ENDSEC
  0
SECTION
  2
TABLES
  0
TABLE
  2
VPORT
  5
8
330
0
100
AcDbSymbolTable
 70
1
  0
VPORT
  5
23
330
8
100
AcDbSymbolTableRecord
100
AcDbViewportTableRecord
  2
*Active
 70
0
 10
0.0
 20
0.0
 11
1.0
 21
1.0
 12
0.0
 22
0.0
 13
0.0
 23
0.0
 14
0.5
 24
0.5
 15
0.5
 25
0.5
 16
0.0
 26
0.0
 36
1.0
 17
0.0
 27
0.0
 37
0.0
 40
1000.0
 41
1.34
 42
50.0
 43
0.0
 44
0.0
 50
0.0
 51
0.0
 71
0
 72
1000
 73
1
 74
3
 75
0
 76
0
 77
0
 78
0
281
0
 65
0
146
0.0
  0
ENDTAB
  0
TABLE
  2
LTYPE
  5
2
330
0
100
AcDbSymbolTable
 70
3
  0
LTYPE
  5
24
330
2
100
AcDbSymbolTableRecord
100
AcDbLinetypeTableRecord
  2
ByBlock
 70
0
  3

 72
65
 73
0
 40
0.0
  0
LTYPE
  5
25
330
2
100
AcDbSymbolTableRecord
100
AcDbLinetypeTableRecord
  2
ByLayer
 70
0
  3

 72
65
 73
0
 40
0.0
  0
LTYPE
  5
26
330
2
100
AcDbSymbolTableRecord
100
AcDbLinetypeTableRecord
  2
Continuous
 70
0
  3

 72
65
 73
0
 40
0.0
  0
ENDTAB
  0
TABLE
  2
LAYER
  5
1
330
0
100
AcDbSymbolTable
 70
2
  0
LAYER
  5
27
330
1
100
AcDbSymbolTableRecord
100
AcDbLayerTableRecord
  2
0
 70
0
 62
7
  6
Continuous
370
-3
390
13
347
21
  0
LAYER
  5
28
330
1
100
AcDbSymbolTableRecord
100
AcDbLayerTableRecord
  2
Defpoints
 70
0
 62
7
  6
Continuous
290
0
370
-3
390
13
347
21
  0
ENDTAB
  0
TABLE
  2
STYLE
  5
5
330
0
100
AcDbSymbolTable
 70
1
  0
STYLE
  5
29
330
5
100
AcDbSymbolTableRecord
100
AcDbTextStyleTableRecord
  2
Standard
 70
0
 40
0.0
 41
1.0
 50
0.0
 71
0
 42
2.5
  3
txt
  4

  0
ENDTAB
  0
TABLE
  2
VIEW
  5
7
330
0
100
AcDbSymbolTable
 70
0
  0
ENDTAB
  0
TABLE
  2
UCS
  5
6
330
0
100
AcDbSymbolTable
 70
0
  0
ENDTAB
  0
TABLE
  2
APPID
  5
3
330
0
100
AcDbSymbolTable
 70
3
  0
APPID
  5
2A
330
3
100
AcDbSymbolTableRecord
100
AcDbRegAppTableRecord
  2
ACAD
 70
0
  0
APPID
  5
3B
330
3
100
AcDbSymbolTableRecord
100
AcDbRegAppTableRecord
  2
HATCHBACKGROUNDCOLOR
 70
0
  0
APPID
  5
3C
330
3
100
AcDbSymbolTableRecord
100
AcDbRegAppTableRecord
  2
EZDXF
 70
0
  0
ENDTAB
  0
TABLE
  2
DIMSTYLE
  5
4
330
0
100
AcDbSymbolTable
 70
1
100
AcDbDimStyleTable
  0
DIMSTYLE
105
2B
330
4
100
AcDbSymbolTableRecord
100
AcDbDimStyleTableRecord
  2
Standard
 70
0
 40
1.0
 41
2.5
 42
0.625
 43
3.75
 44
1.25
 45
0.0
 46
0.0
 47
0.0
 48
0.0
 49
2.5
140
2.5
141
2.5
142
0.0
143
0.03937007874
144
1.0
145
0.0
146
1.0
147
0.625
148
0.0
 69
0
 70
0
 71
0
 72
0
 73
0
 74
0
 75
0
 76
0
 77
1
 78
8
 79
3
170
0
171
3
172
1
173
0
174
0
175
0
176
0
177
0
178
0
179
2
271
2
272
2
273
2
274
3
275
0
276
0
277
2
278
44
279
0
280
0
281
0
282
0
283
0
284
8
285
0
286
0
288
0
289
3
290
0
371
-2
372
-2
  0
ENDTAB
  0
TABLE
  2
BLOCK_RECORD
  5
9
330
0
100
AcDbSymbolTable
 70
2
  0
BLOCK_RECORD
  5
17
330
9
100
AcDbSymbolTableRecord
100
AcDbBlockTableRecord
  2
*Model_Space
340
1A
 70
0
280
1
281
0
  0
BLOCK_RECORD
  5
1B
330
9
100
AcDbSymbolTableRecord
100
AcDbBlockTableRecord
  2
*Paper_Space
340
1E
 70
0
280
1
281
0
  0
ENDTAB
  0
ENDSEC
  0
SECTION
  2
BLOCKS
  0
BLOCK
  5
18
330
17
100
AcDbEntity
  8
0
100
AcDbBlockBegin
  2
*Model_Space
 70
0
 10
0.0
 20
0.0
 30
0.0
  3
*Model_Space
  1

  0
ENDBLK
  5
19
330
17
100
AcDbEntity
  8
0
100
AcDbBlockEnd
  0
BLOCK
  5
1C
330
1B
100
AcDbEntity
  8
0
100
AcDbBlockBegin
  2
*Paper_Space
 70
0
 10
0.0
 20
0.0
 30
0.0
  3
*Paper_Space
  1

  0
ENDBLK
  5
1D
330
1B
100
AcDbEntity
  8
0
100
AcDbBlockEnd
  0
ENDSEC
  0
SECTION
  2
ENTITIES
  0
LWPOLYLINE
  5
2F
330
17
100
AcDbEntity
  8
0
100
AcDbPolyline
 90
8
 70
0
 10
0.49265683806547056
 20
-6.974983654716392
 10
0.49265683806547056
 20
-7.0787008837828065
 10
0.5445154525986773
 20
-7.147845703160417
 10
1.3051084657523866
 20
-7.147845703160417
 10
1.3742532851299956
 20
-7.0268422692496
 10
1.2878222609079835
 20
-6.88855263049438
 10
0.5618016574430804
 20
-6.88855263049438
 10
0.49265683806547056
 20
-6.974983654716392
  0
LWPOLYLINE
  5
30
330
17
100
AcDbEntity
  8
0
100
AcDbPolyline
 90
8
 70
0
 10
-0.6482326816650925
 20
-6.95769744987199
 10
-0.6482326816650925
 20
-7.061414678938405
 10
-0.5963740671318849
 20
-7.130559498316014
 10
0.025929307266603807
 20
-7.130559498316014
 10
0.09507412664421366
 20
-7.0095560644051975
 10
0.008643102422201565
 20
-6.871266425649978
 10
-0.5790878622874827
 20
-6.871266425649978
 10
-0.6482326816650925
 20
-6.95769744987199
  0
LWPOLYLINE
  5
31
330
17
100
AcDbEntity
  8
0
100
AcDbPolyline
 90
35
 70
0
 10
-1.253249851219178
 20
-0.5790878622874818
 10
-1.253249851219178
 20
-0.751949910731506
 10
-1.2013912366859714
 20
-0.8210947301091167
 10
4.157332265078791
 20
-0.682805091353897
 10
4.226477084456402
 20
-0.8210947301091167
 10
5.280935579964952
 20
-0.8210947301091167
 10
5.367366604186964
 20
-0.9075257543311288
 10
5.384652809031367
 20
-1.0631015979307499
 10
5.384652809031367
 20
-1.9792704546840811
 10
5.505656242942184
 20
-2.1002738885948986
 10
5.972383773741051
 20
-2.2385635273501183
 10
6.197104436718282
 20
-2.2385635273501183
 10
6.2835354609402945
 20
-2.1521325031281053
 10
6.439111304539917
 20
-1.3915394899743978
 10
6.473683714228722
 20
-0.8210947301091167
 10
6.456397509384319
 20
-0.3197947896214455
 10
6.352680280317905
 20
0.3889396089990562
 10
6.179818231873879
 20
0.9766705737087396
 10
6.076101002807466
 20
1.2013912366859714
 10
5.937811364052246
 20
1.3223946705967897
 10
5.868666544674635
 20
1.339680875441191
 10
5.868666544674635
 20
1.7199773820180457
 10
5.782235520452623
 20
1.8582670207732654
 10
5.592087267164196
 20
1.8582670207732654
 10
5.540228652630988
 20
1.8064084062400578
 10
5.522942447786587
 20
1.339680875441191
 10
5.401939013875769
 20
1.270536056063582
 10
5.384652809031367
 20
1.1495326221527638
 10
5.229076965431744
 20
0.9939567785531427
 10
5.3155079896537565
 20
-0.04321551211100605
 10
5.263649375120549
 20
-0.12964653633301815
 10
4.226477084456402
 20
-0.18150515086622576
 10
4.14004606023439
 20
-0.33708099446584683
 10
-1.166818826997166
 20
-0.47537063322106654
 10
-1.253249851219178
 20
-0.5790878622874818
  0
LWPOLYLINE
  5
32
330
17
100
AcDbEntity
  8
0
100
AcDbPolyline
 90
38
 70
0
 10
-2.688004853304583
 20
-0.6136602719762863
 10
-2.7225772629933873
 20
-1.166818826997165
 10
-2.705291058148985
 20
-1.892839430462069
 10
-2.6534324436157775
 20
-2.290422141883325
 10
-2.5670014193937654
 20
-2.688004853304582
 10
-2.3941393709497403
 20
-3.189304793792253
 10
-2.2731359370389237
 20
-3.344880637391875
 10
-2.1175600934393017
 20
-3.3794530470806805
 10
-2.1175600934393017
 20
-3.7770357585019365
 10
-2.065701478906094
 20
-3.8461805778795464
 10
-1.8582670207732646
 20
-3.8461805778795464
 10
-1.7891222013956547
 20
-3.72517714396873
 10
-1.806408406240057
 20
-3.3794530470806805
 10
-1.6854049723292395
 20
-3.3103082277030706
 10
-1.650832562640435
 20
-3.189304793792253
 10
-1.5298291287296175
 20
-3.085587564725839
 10
-1.495256719040813
 20
-2.999156540503826
 10
-1.5816877432628251
 20
-1.9792704546840811
 10
-1.495256719040813
 20
-1.9101256353064713
 10
-0.49265683806546967
 20
-1.875553225617666
 10
-0.4235120186878598
 20
-1.7372635868624462
 10
-0.3716534041546531
 20
-1.7026911771736417
 10
3.673318529435523
 20
-1.650832562640434
 10
3.742463348813132
 20
-1.5298291287296175
 10
3.7251771439687307
 20
-1.4261118996632023
 10
3.65603232459112
 20
-1.3396808754411902
 10
-0.4062258138434576
 20
-1.3915394899743978
 10
-0.5099430429098728
 20
-1.2186774415303727
 10
-1.5644015384184229
 20
-1.2359636463747758
 10
-1.6335463577960327
 20
-1.1495326221527638
 10
-1.6162601529516296
 20
-0.21607756055503025
 10
-1.650832562640435
 20
-0.07778792179981053
 10
-1.737263586862447
 20
0.025929307266604695
 10
-2.0311290692172888
 20
0.14693274117742128
 10
-2.2558497321945215
 20
0.1987913557106289
 10
-2.4287117806385456
 20
0.1987913557106289
 10
-2.549715214549363
 20
0.07778792179981231
 10
-2.688004853304583
 20
-0.6136602719762863
  0
LWPOLYLINE
  5
33
330
17
100
AcDbEntity
  8
0
100
AcDbPolyline
 90
40
 70
0
 10
-2.964584130815022
 20
2.324994551572132
 10
-2.964584130815022
 20
2.1002738885949004
 10
-2.895439311437412
 20
2.0138428643728865
 10
2.3595669612609367
 20
2.0829876837504973
 10
2.376853166105338
 20
1.9619842498396807
 10
2.4459979854829488
 20
1.8582670207732654
 10
3.7251771439687307
 20
1.8582670207732654
 10
3.828894373035146
 20
1.7372635868624489
 10
3.8461805778795473
 20
0.4580844283766652
 10
3.915325397257158
 20
0.35436719931025173
 10
4.416625337744829
 20
0.1642189460218244
 10
4.796921844321682
 20
0.12964653633301992
 10
4.9179252782325005
 20
0.2506499702438365
 10
5.021642507298916
 20
0.6655188865094956
 10
5.142645941209732
 20
1.6681187674848381
 10
5.142645941209732
 20
2.2731359370389246
 10
5.0735011218321215
 20
3.0683013598814366
 10
4.831494254010488
 20
4.053615036012378
 10
4.6759184104108655
 20
4.364766723211622
 10
4.554914976500049
 20
4.48577015712244
 10
4.433911542589231
 20
4.5203425668112445
 10
4.433911542589231
 20
4.987070097610111
 10
4.399339132900426
 20
5.073501121832123
 10
4.312908108678414
 20
5.142645941209732
 10
4.14004606023439
 20
5.142645941209732
 10
4.036328831167975
 20
5.073501121832123
 10
4.0190426263235715
 20
4.5203425668112445
 10
3.8634667827239504
 20
4.433911542589232
 10
3.8461805778795473
 20
4.261049494145206
 10
3.7078909391243275
 20
4.122759855389987
 10
3.690604734279926
 20
3.898039192412755
 10
3.759749553657535
 20
2.843580696904205
 10
3.690604734279926
 20
2.7571496726821927
 10
2.843580696904205
 20
2.705291058148985
 10
2.4805703951717533
 20
2.722577262993388
 10
2.394139370949741
 20
2.6534324436157792
 10
2.376853166105338
 20
2.5151428048605595
 10
2.290422141883326
 20
2.4805703951717533
 10
-2.8781531065930097
 20
2.4287117806385456
 10
-2.964584130815022
 20
2.324994551572132
  0
LWPOLYLINE
  5
34
330
17
100
AcDbEntity
  8
0
100
AcDbPolyline
 90
39
 70
0
 10
-3.5177426858359007
 20
5.747663110763819
 10
-3.500456480991498
 20
5.436511423564575
 10
-3.4313116616138886
 20
5.350080399342563
 10
3.742463348813132
 20
5.471083833253379
 10
3.8116081681907428
 20
5.3155079896537565
 10
5.108073531520928
 20
5.3155079896537565
 10
5.177218350898537
 20
5.280935579964952
 10
5.229076965431744
 20
5.19450455574294
 10
5.2463631702761475
 20
3.898039192412755
 10
5.33279419449816
 20
3.7943219633463414
 10
5.471083833253379
 20
3.7251771439687307
 10
5.955097568896647
 20
3.586887505213511
 10
6.2143906415626855
 20
3.586887505213511
 10
6.335394075473502
 20
3.742463348813134
 10
6.38725269000671
 20
4.053615036012378
 10
6.439111304539917
 20
4.157332265078793
 10
6.525542328761929
 20
4.762349434632879
 10
6.560114738450734
 20
5.730376905919416
 10
6.525542328761929
 20
6.231676846407087
 10
6.439111304539917
 20
6.81940781111677
 10
6.318107870629099
 20
7.30342154676004
 10
6.127959617340672
 20
7.804721487247713
 10
5.90323895436344
 20
8.01215594538054
 10
5.90323895436344
 20
8.530742090712616
 10
5.799521725297026
 20
8.70360413915664
 10
5.471083833253379
 20
8.70360413915664
 10
5.367366604186964
 20
8.599886910090225
 10
5.367366604186964
 20
8.01215594538054
 10
5.2463631702761475
 20
7.925724921158528
 10
5.229076965431744
 20
7.735576667870101
 10
5.090787326676525
 20
7.562714619426076
 10
5.159932146054135
 20
6.300821665784698
 10
5.108073531520928
 20
6.231676846407087
 10
5.021642507298916
 20
6.197104436718282
 10
3.828894373035146
 20
6.162532027029478
 10
3.7770357585019383
 20
6.11067341249627
 10
3.742463348813132
 20
5.989669978585454
 10
-3.4313116616138886
 20
5.868666544674635
 10
-3.5177426858359007
 20
5.747663110763819
  0
LWPOLYLINE
  5
35
330
17
100
AcDbEntity
  8
0
100
AcDbPolyline
 90
38
 70
0
 10
-3.79432196334634
 20
-2.6707186484601797
 10
-3.93261160210156
 20
-3.5350288906803025
 10
-3.93261160210156
 20
-4.433911542589231
 10
-3.898039192412755
 20
-4.796921844321682
 10
-3.828894373035145
 20
-5.194504555742939
 10
-3.6733185294355226
 20
-5.730376905919416
 10
-3.5868875052135105
 20
-5.920525159207842
 10
-3.4658840713026935
 20
-6.0415285931186595
 10
-3.310308227703071
 20
-6.076101002807464
 10
-3.310308227703071
 20
-6.387252690006708
 10
-3.2411634083254612
 20
-6.525542328761928
 10
-3.0855875647258393
 20
-6.525542328761928
 10
-3.0164427453482294
 20
-6.404538894851111
 10
-3.0164427453482294
 20
-6.076101002807464
 10
-2.895439311437412
 20
-6.006956183429854
 10
-2.860866901748607
 20
-5.885952749519037
 10
-2.7571496726821927
 20
-5.816807930141428
 10
-2.705291058148985
 20
-5.69580449623061
 10
-2.791722082370997
 20
-4.675918410410865
 10
-2.7225772629933873
 20
-4.624059795877658
 10
-1.737263586862447
 20
-4.606773591033255
 10
-1.650832562640435
 20
-4.433911542589231
 10
2.4805703951717533
 20
-4.468483952278035
 10
2.5497152145493622
 20
-4.3474805183672185
 10
2.5151428048605577
 20
-4.243763289300803
 10
2.4459979854829488
 20
-4.174618469923193
 10
-1.650832562640435
 20
-4.140046060234389
 10
-1.7026911771736426
 20
-4.0190426263235715
 10
-1.7891222013956547
 20
-3.9498978069459616
 10
-2.774435877526595
 20
-3.9498978069459616
 10
-2.843580696904205
 20
-3.898039192412754
 10
-2.860866901748607
 20
-2.860866901748606
 10
-2.895439311437412
 20
-2.774435877526594
 10
-2.9818703356594245
 20
-2.688004853304582
 10
-3.120159974414644
 20
-2.618860033926972
 10
-3.5177426858359007
 20
-2.5151428048605577
 10
-3.6733185294355226
 20
-2.53242900970496
 10
-3.79432196334634
 20
-2.6707186484601797
  0
LWPOLYLINE
  5
36
330
17
100
AcDbEntity
  8
0
100
AcDbPolyline
 90
43
 70
0
 10
-4.537628771655646
 20
2.065701478906094
 10
-4.589487386188853
 20
1.5989739481072291
 10
-4.606773591033256
 20
0.7865223204203122
 10
-4.503056361966841
 20
-0.23336376539943338
 10
-4.3474805183672185
 20
-0.8556671397979212
 10
-4.157332265078791
 20
-1.3051084657523848
 10
-3.984470216634767
 20
-1.47797051419641
 10
-3.8461805778795473
 20
-1.4952567190408121
 10
-3.828894373035145
 20
-1.9446980449952758
 10
-3.759749553657535
 20
-2.1002738885948986
 10
-3.5177426858359007
 20
-2.1002738885948986
 10
-3.4658840713026935
 20
-2.048415274061691
 10
-3.4313116616138886
 20
-1.961984249839679
 10
-3.4658840713026935
 20
-1.47797051419641
 10
-3.344880637391876
 20
-1.4606843093520077
 10
-3.310308227703071
 20
-1.4261118996632023
 10
-3.275735818014266
 20
-1.2359636463747758
 10
-3.1720185889478514
 20
-1.1322464173083606
 10
-3.1374461792590465
 20
-1.0458153930863485
 10
-3.223877203481059
 20
0.18150515086622576
 10
-3.120159974414644
 20
0.26793617508823964
 10
-2.60157382908257
 20
0.3025085847770441
 10
-1.9446980449952767
 20
0.285222379932641
 10
-1.8582670207732646
 20
0.3889396089990562
 10
-1.8236946110844592
 20
0.5445154525986791
 10
3.431311661613888
 20
0.6482326816650925
 10
3.5177426858359
 20
0.7865223204203122
 10
3.500456480991499
 20
0.9420981640199351
 10
3.431311661613888
 20
1.0285291882419472
 10
-1.8409808159288623
 20
0.9248119591755319
 10
-1.8755532256176668
 20
1.0631015979307517
 10
-1.9446980449952767
 20
1.1495326221527638
 10
-3.2065909986366563
 20
1.1495326221527638
 10
-3.293022022858669
 20
1.2186774415303745
 10
-3.310308227703071
 20
1.3742532851299956
 10
-3.310308227703071
 20
2.4805703951717533
 10
-3.344880637391876
 20
2.5670014193937654
 10
-3.4313116616138886
 20
2.6534324436157792
 10
-3.6733185294355226
 20
2.7571496726821927
 10
-4.088187445701182
 20
2.860866901748608
 10
-4.261049494145206
 20
2.860866901748608
 10
-4.382052928056024
 20
2.7571496726821927
 10
-4.537628771655646
 20
2.065701478906094
  0
LWPOLYLINE
  5
37
330
17
100
AcDbEntity
  8
0
100
AcDbPolyline
 90
37
 70
0
 10
-4.693204615255268
 20
-5.298221784809353
 10
-4.796921844321683
 20
-5.76494931560822
 10
-4.866066663699293
 20
-6.369966485162307
 10
-4.866066663699293
 20
-7.182418112849222
 10
-4.814208049166085
 20
-7.631859438803685
 10
-4.727777024944073
 20
-8.081300764758149
 10
-4.554914976500049
 20
-8.599886910090223
 10
-4.399339132900426
 20
-8.755462753689846
 10
-4.261049494145206
 20
-8.79003516337865
 10
-4.2783356989896095
 20
-9.170331669955505
 10
-4.226477084456402
 20
-9.239476489333114
 10
-4.088187445701182
 20
-9.239476489333114
 10
-4.0190426263235715
 20
-9.118473055422298
 10
-4.036328831167975
 20
-8.945611006978273
 10
-4.00175642147917
 20
-8.79003516337865
 10
-3.8461805778795473
 20
-8.72089034400104
 10
-3.8116081681907423
 20
-8.599886910090223
 10
-3.7078909391243275
 20
-8.513455885868211
 10
-3.6560323245911204
 20
-8.392452451957395
 10
-3.7251771439687302
 20
-7.355280161293246
 10
-3.6560323245911204
 20
-7.303421546760039
 10
-2.6707186484601797
 20
-7.303421546760039
 10
-2.5842876242381676
 20
-7.113273293471612
 10
-2.134846298283704
 20
-7.113273293471612
 10
-2.065701478906094
 20
-6.992269859560794
 10
-2.1521325031281062
 20
-6.853980220805575
 10
-2.5842876242381676
 20
-6.853980220805575
 10
-2.618860033926973
 20
-6.732976786894758
 10
-2.688004853304583
 20
-6.646545762672746
 10
-3.759749553657535
 20
-6.611973352983941
 10
-3.79432196334634
 20
-6.214390641562684
 10
-3.7770357585019374
 20
-5.5575148574753905
 10
-3.828894373035145
 20
-5.436511423564573
 10
-4.00175642147917
 20
-5.3155079896537565
 10
-4.399339132900426
 20
-5.194504555742939
 10
-4.57220118134445
 20
-5.194504555742939
 10
-4.693204615255268
 20
-5.298221784809353
  0
LWPOLYLINE
  5
38
330
17
100
AcDbEntity
  8
0
100
AcDbPolyline
 90
39
 70
0
 10
-5.350080399342561
 20
8.444311066490604
 10
-5.401939013875769
 20
7.770149077558907
 10
-5.401939013875769
 20
7.165131908004822
 10
-5.298221784809354
 20
6.197104436718282
 10
-5.05621491698772
 20
5.280935579964952
 10
-4.935211483076903
 20
5.021642507298916
 10
-4.727777024944073
 20
4.8487804588548915
 10
-4.727777024944073
 20
4.243763289300805
 10
-4.658632205566462
 20
4.157332265078793
 10
-4.226477084456402
 20
4.157332265078793
 10
-4.157332265078791
 20
4.209190879612001
 10
-4.122759855389987
 20
4.295621903834013
 10
-4.14004606023439
 20
4.8487804588548915
 10
-4.053615036012377
 20
4.935211483076904
 10
-4.053615036012377
 20
5.090787326676525
 10
-3.949897806945962
 20
5.177218350898537
 10
-3.915325397257157
 20
5.263649375120551
 10
-4.00175642147917
 20
6.490969919073125
 10
-3.898039192412755
 20
6.6119733529839415
 10
-2.6707186484601797
 20
6.646545762672746
 10
-2.5842876242381676
 20
6.7848354014279675
 10
4.71049082009967
 20
6.8539802208055765
 10
4.814208049166085
 20
7.0095560644051975
 10
4.814208049166085
 20
7.286135341915637
 10
4.779635639477281
 20
7.372566366137649
 10
4.693204615255269
 20
7.458997390359661
 10
-2.618860033926973
 20
7.372566366137649
 10
-2.705291058148985
 20
7.5108560048928705
 10
-3.9671840117903647
 20
7.493569800048467
 10
-4.088187445701182
 20
7.597287029114883
 10
-4.122759855389987
 20
8.409738656801798
 10
-4.105473650545584
 20
8.738176548845443
 10
-4.14004606023439
 20
8.92832480213387
 10
-4.312908108678414
 20
9.083900645733495
 10
-4.796921844321683
 20
9.239476489333116
 10
-5.125359736365329
 20
9.239476489333116
 10
-5.194504555742939
 20
9.170331669955507
 10
-5.246363170276147
 20
9.032042031200286
 10
-5.350080399342561
 20
8.444311066490604
  0
LWPOLYLINE
  5
39
330
17
100
AcDbEntity
  8
0
100
AcDbPolyline
 90
42
 70
0
 10
-6.490969919073124
 20
4.572201181344452
 10
-6.5255423287619285
 20
4.122759855389987
 10
-6.5255423287619285
 20
3.258449613169864
 10
-6.421825099695514
 20
2.4287117806385456
 10
-6.248963051251489
 20
1.7545497917068502
 10
-6.110673412496269
 20
1.4261118996632032
 10
-5.937811364052245
 20
1.2186774415303745
 10
-5.816807930141428
 20
1.2013912366859714
 10
-5.7995217252970255
 20
0.7173775010427033
 10
-5.730376905919416
 20
0.6309464768206912
 10
-5.471083833253378
 20
0.6309464768206912
 10
-5.384652809031366
 20
0.682805091353897
 10
-5.350080399342561
 20
0.7692361155759109
 10
-5.367366604186964
 20
1.2186774415303745
 10
-5.229076965431744
 20
1.270536056063582
 10
-5.194504555742939
 20
1.3569670802855942
 10
-5.211790760587341
 20
1.4606843093520094
 10
-5.108073531520927
 20
1.5471153335740215
 10
-5.073501121832122
 20
1.6335463577960336
 10
-5.142645941209732
 20
2.878153106593011
 10
-5.038928712143317
 20
2.964584130815023
 10
-3.828894373035145
 20
2.9991565405038276
 10
-3.7770357585019374
 20
3.0683013598814366
 10
-3.7424633488131325
 20
3.2065909986366563
 10
3.327594432547473
 20
3.2411634083254626
 10
3.4140254567694868
 20
3.4140254567694868
 10
3.362166842236279
 20
3.6214599149023154
 10
3.258449613169864
 20
3.690604734279926
 10
-3.7424633488131325
 20
3.6560323245911217
 10
-3.8461805778795473
 20
3.846180577879549
 10
-5.108073531520927
 20
3.846180577879549
 10
-5.211790760587341
 20
3.898039192412755
 10
-5.229076965431744
 20
4.036328831167975
 10
-5.229076965431744
 20
5.177218350898537
 10
-5.263649375120549
 20
5.263649375120551
 10
-5.453797628408976
 20
5.40193901387577
 10
-5.989669978585453
 20
5.557514857475391
 10
-6.197104436718282
 20
5.557514857475391
 10
-6.300821665784697
 20
5.471083833253379
 10
-6.369966485162307
 20
5.125359736365331
 10
-6.421825099695514
 20
5.038928712143319
 10
-6.490969919073124
 20
4.572201181344452
  0
LWPOLYLINE
  5
3A
330
17
100
AcDbEntity
  8
0
100
AcDbPolyline
 90
23
 70
0
 10
-6.542828533606332
 20
-1.9101256353064713
 10
-6.473683714228722
 20
-2.117560093439301
 10
-6.369966485162307
 20
-2.290422141883325
 10
-6.058814797963063
 20
-2.5842876242381676
 10
-5.885952749519038
 20
-2.6707186484601797
 10
-5.678518291386208
 20
-2.7225772629933864
 10
-5.194504555742939
 20
-2.705291058148984
 10
-4.900639073388097
 20
-2.5842876242381676
 10
-4.762349434632878
 20
-2.4805703951717524
 10
-4.554914976500049
 20
-2.2385635273501183
 10
-4.399339132900426
 20
-1.8236946110844592
 10
-4.416625337744829
 20
-1.4088256948188
 10
-4.57220118134445
 20
-1.0458153930863485
 10
-4.900639073388097
 20
-0.7173775010427015
 10
-5.108073531520927
 20
-0.6136602719762863
 10
-5.298221784809354
 20
-0.5618016574430786
 10
-5.76494931560822
 20
-0.5790878622874818
 10
-5.955097568896647
 20
-0.6482326816650907
 10
-6.145245822185075
 20
-0.7692361155759091
 10
-6.421825099695514
 20
-1.080387802775153
 10
-6.490969919073124
 20
-1.2186774415303727
 10
-6.560114738450734
 20
-1.4952567190408121
 10
-6.542828533606332
 20
-1.9101256353064713
  0
ENDSEC
  0
SECTION
  2
OBJECTS
  0
DICTIONARY
  5
A
330
0
100
AcDbDictionary
280
0
281
1
  3
ACAD_COLOR
350
B
  3
ACAD_GROUP
350
C
  3
ACAD_LAYOUT
350
D
  3
ACAD_MATERIAL
350
E
  3
ACAD_MLEADERSTYLE
350
F
  3
ACAD_MLINESTYLE
350
10
  3
ACAD_PLOTSETTINGS
350
11
  3
ACAD_PLOTSTYLENAME
350
12
  3
ACAD_SCALELIST
350
14
  3
ACAD_TABLESTYLE
350
15
  3
ACAD_VISUALSTYLE
350
16
  3
EZDXF_META
350
2D
  0
DICTIONARY
  5
B
330
A
100
AcDbDictionary
280
0
281
1
  0
DICTIONARY
  5
C
330
A
100
AcDbDictionary
280
0
281
1
  0
DICTIONARY
  5
D
330
A
100
AcDbDictionary
280
0
281
1
  3
Model
350
1A
  3
Layout1
350
1E
  0
DICTIONARY
  5
E
330
A
100
AcDbDictionary
280
0
281
1
  3
ByBlock
350
1F
  3
ByLayer
350
20
  3
Global
350
21
  0
DICTIONARY
  5
F
330
A
100
AcDbDictionary
280
0
281
1
  3
Standard
350
2C
  0
DICTIONARY
  5
10
330
A
100
AcDbDictionary
280
0
281
1
  3
Standard
350
22
  0
DICTIONARY
  5
11
330
A
100
AcDbDictionary
280
0
281
1
  0
ACDBDICTIONARYWDFLT
  5
12
330
A
100
AcDbDictionary
280
0
281
1
  3
Normal
350
13
100
AcDbDictionaryWithDefault
340
13
  0
ACDBPLACEHOLDER
  5
13
330
12
  0
DICTIONARY
  5
14
330
A
100
AcDbDictionary
280
0
281
1
  0
DICTIONARY
  5
15
330
A
100
AcDbDictionary
280
0
281
1
  0
DICTIONARY
  5
16
330
A
100
AcDbDictionary
280
0
281
1
  0
LAYOUT
  5
1A
330
D
100
AcDbPlotSettings
  1

  4
A3
  6

 40
7.5
 41
20.0
 42
7.5
 43
20.0
 44
420.0
 45
297.0
 46
0.0
 47
0.0
 48
0.0
 49
0.0
140
0.0
141
0.0
142
1.0
143
1.0
 70
1024
 72
1
 73
0
 74
5
  7

 75
16
 76
0
 77
2
 78
300
147
1.0
148
0.0
149
0.0
100
AcDbLayout
  1
Model
 70
1
 71
0
 10
0.0
 20
0.0
 11
420.0
 21
297.0
 12
0.0
 22
0.0
 32
0.0
 14
1e+20
 24
1e+20
 34
1e+20
 15
-1e+20
 25
-1e+20
 35
-1e+20
146
0.0
 13
0.0
 23
0.0
 33
0.0
 16
1.0
 26
0.0
 36
0.0
 17
0.0
 27
1.0
 37
0.0
 76
1
330
17
  0
LAYOUT
  5
1E
330
D
100
AcDbPlotSettings
  1

  4
A3
  6

 40
7.5
 41
20.0
 42
7.5
 43
20.0
 44
420.0
 45
297.0
 46
0.0
 47
0.0
 48
0.0
 49
0.0
140
0.0
141
0.0
142
1.0
143
1.0
 70
0
 72
1
 73
0
 74
5
  7

 75
16
 76
0
 77
2
 78
300
147
1.0
148
0.0
149
0.0
100
AcDbLayout
  1
Layout1
 70
1
 71
1
 10
0.0
 20
0.0
 11
420.0
 21
297.0
 12
0.0
 22
0.0
 32
0.0
 14
1e+20
 24
1e+20
 34
1e+20
 15
-1e+20
 25
-1e+20
 35
-1e+20
146
0.0
 13
0.0
 23
0.0
 33
0.0
 16
1.0
 26
0.0
 36
0.0
 17
0.0
 27
1.0
 37
0.0
 76
1
330
1B
  0
MATERIAL
  5
1F
102
{ACAD_REACTORS
330
E
102
}
330
E
100
AcDbMaterial
  1
ByBlock
  2

 70
0
 40
1.0
 71
1
 41
1.0
 91
-1023410177
 42
1.0
 72
1
  3

 73
1
 74
1
 75
1
 44
0.5
 73
0
 45
1.0
 46
1.0
 77
1
  4

 78
1
 79
1
170
1
 48
1.0
171
1
  6

172
1
173
1
174
1
140
1.0
141
1.0
175
1
  7

176
1
177
1
178
1
143
1.0
179
1
  8

270
1
271
1
272
1
145
1.0
146
1.0
273
1
  9

274
1
275
1
276
1
 42
1.0
 72
1
  3

 73
1
 74
1
 75
1
 94
63
  0
MATERIAL
  5
20
102
{ACAD_REACTORS
330
E
102
}
330
E
100
AcDbMaterial
  1
ByLayer
  2

 70
0
 40
1.0
 71
1
 41
1.0
 91
-1023410177
 42
1.0
 72
1
  3

 73
1
 74
1
 75
1
 44
0.5
 73
0
 45
1.0
 46
1.0
 77
1
  4

 78
1
 79
1
170
1
 48
1.0
171
1
  6

172
1
173
1
174
1
140
1.0
141
1.0
175
1
  7

176
1
177
1
178
1
143
1.0
179
1
  8

270
1
271
1
272
1
145
1.0
146
1.0
273
1
  9

274
1
275
1
276
1
 42
1.0
 72
1
  3

 73
1
 74
1
 75
1
 94
63
  0
MATERIAL
  5
21
102
{ACAD_REACTORS
330
E
102
}
330
E
100
AcDbMaterial
  1
Global
  2

 70
0
 40
1.0
 71
1
 41
1.0
 91
-1023410177
 42
1.0
 72
1
  3

 73
1
 74
1
 75
1
 44
0.5
 73
0
 45
1.0
 46
1.0
 77
1
  4

 78
1
 79
1
170
1
 48
1.0
171
1
  6

172
1
173
1
174
1
140
1.0
141
1.0
175
1
  7

176
1
177
1
178
1
143
1.0
179
1
  8

270
1
271
1
272
1
145
1.0
146
1.0
273
1
  9

274
1
275
1
276
1
 42
1.0
 72
1
  3

 73
1
 74
1
 75
1
 94
63
  0
MLINESTYLE
  5
22
102
{ACAD_REACTORS
330
10
102
}
330
10
100
AcDbMlineStyle
  2
Standard
 70
0
  3

 62
256
 51
90.0
 52
90.0
 71
2
 49
0.5
 62
256
  6
BYLAYER
 49
-0.5
 62
256
  6
BYLAYER
  0
MLEADERSTYLE
  5
2C
102
{ACAD_REACTORS
330
F
102
}
330
F
100
AcDbMLeaderStyle
179
2
170
2
171
1
172
0
 90
2
 40
0.0
 41
0.0
173
1
 91
-1056964608
 92
-2
290
1
 42
2.0
291
1
 43
8.0
  3
Standard
 44
4.0
300

342
29
174
1
175
1
176
0
178
1
 93
-1056964608
 45
4.0
292
0
297
0
 46
4.0
 94
-1056964608
 47
1.0
 49
1.0
140
1.0
294
1
141
0.0
177
0
142
1.0
295
0
296
0
143
3.75
271
0
272
9
273
9
  0
DICTIONARY
  5
2D
330
A
100
AcDbDictionary
280
1
281
1
  3
CREATED_BY_EZDXF
350
2E
  3
WRITTEN_BY_EZDXF
350
3D
  0
DICTIONARYVAR
  5
2E
330
2D
100
DictionaryVariables
280
0
  1
1.3.5 @ 2025-03-22T22:27:31.394861+00:00
  0
DICTIONARYVAR
  5
3D
330
2D
100
DictionaryVariables
280
0
  1
1.3.5 @ 2025-03-22T22:27:31.397951+00:00
  0
ENDSEC
  0
EOF
