  0
SECTION
  2
HEADER
  9
$ACADVER
  1
AC1027
  9
$ACADMAINTVER
 70
105
  9
$DWGCODEPAGE
  3
ANSI_1252
  9
$LASTSAVEDBY
  1
ezdxf
  9
$REQUIREDVERSIONS
160
0
  9
$INSBASE
 10
0.0
 20
0.0
 30
0.0
  9
$EXTMIN
 10
1e+20
 20
1e+20
 30
1e+20
  9
$EXTMAX
 10
-1e+20
 20
-1e+20
 30
-1e+20
  9
$LIMMIN
 10
0.0
 20
0.0
  9
$LIMMAX
 10
420.0
 20
297.0
  9
$ORTHOMODE
 70
0
  9
$REGENMODE
 70
1
  9
$FILLMODE
 70
1
  9
$QTEXTMODE
 70
0
  9
$MIRRTEXT
 70
1
  9
$LTSCALE
 40
1.0
  9
$ATTMODE
 70
1
  9
$TEXTSIZE
 40
2.5
  9
$TRACEWID
 40
1.0
  9
$TEXTSTYLE
  7
Standard
  9
$CLAYER
  8
0
  9
$CELTYPE
  6
ByLayer
  9
$CECOLOR
 62
256
  9
$CELTSCALE
 40
1.0
  9
$DISPSILH
 70
0
  9
$DIMSCALE
 40
1.0
  9
$DIMASZ
 40
2.5
  9
$DIMEXO
 40
0.625
  9
$DIMDLI
 40
3.75
  9
$DIMRND
 40
0.0
  9
$DIMDLE
 40
0.0
  9
$DIMEXE
 40
1.25
  9
$DIMTP
 40
0.0
  9
$DIMTM
 40
0.0
  9
$DIMTXT
 40
2.5
  9
$DIMCEN
 40
2.5
  9
$DIMTSZ
 40
0.0
  9
$DIMTOL
 70
0
  9
$DIMLIM
 70
0
  9
$DIMTIH
 70
0
  9
$DIMTOH
 70
0
  9
$DIMSE1
 70
0
  9
$DIMSE2
 70
0
  9
$DIMTAD
 70
1
  9
$DIMZIN
 70
8
  9
$DIMBLK
  1

  9
$DIMASO
 70
1
  9
$DIMSHO
 70
1
  9
$DIMPOST
  1

  9
$DIMAPOST
  1

  9
$DIMALT
 70
0
  9
$DIMALTD
 70
3
  9
$DIMALTF
 40
0.03937007874
  9
$DIMLFAC
 40
1.0
  9
$DIMTOFL
 70
1
  9
$DIMTVP
 40
0.0
  9
$DIMTIX
 70
0
  9
$DIMSOXD
 70
0
  9
$DIMSAH
 70
0
  9
$DIMBLK1
  1

  9
$DIMBLK2
  1

  9
$DIMSTYLE
  2
ISO-25
  9
$DIMCLRD
 70
0
  9
$DIMCLRE
 70
0
  9
$DIMCLRT
 70
0
  9
$DIMTFAC
 40
1.0
  9
$DIMGAP
 40
0.625
  9
$DIMJUST
 70
0
  9
$DIMSD1
 70
0
  9
$DIMSD2
 70
0
  9
$DIMTOLJ
 70
0
  9
$DIMTZIN
 70
8
  9
$DIMALTZ
 70
0
  9
$DIMALTTZ
 70
0
  9
$DIMUPT
 70
0
  9
$DIMDEC
 70
2
  9
$DIMTDEC
 70
2
  9
$DIMALTU
 70
2
  9
$DIMALTTD
 70
3
  9
$DIMTXSTY
  7
Standard
  9
$DIMAUNIT
 70
0
  9
$DIMADEC
 70
0
  9
$DIMALTRND
 40
0.0
  9
$DIMAZIN
 70
0
  9
$DIMDSEP
 70
44
  9
$DIMATFIT
 70
3
  9
$DIMFRAC
 70
0
  9
$DIMLDRBLK
  1

  9
$DIMLUNIT
 70
2
  9
$DIMLWD
 70
-2
  9
$DIMLWE
 70
-2
  9
$DIMTMOVE
 70
0
  9
$DIMFXL
 40
1.0
  9
$DIMFXLON
 70
0
  9
$DIMJOGANG
 40
0.785398163397
  9
$DIMTFILL
 70
0
  9
$DIMTFILLCLR
 70
0
  9
$DIMARCSYM
 70
0
  9
$DIMLTYPE
  6

  9
$DIMLTEX1
  6

  9
$DIMLTEX2
  6

  9
$DIMTXTDIRECTION
 70
0
  9
$LUNITS
 70
2
  9
$LUPREC
 70
4
  9
$SKETCHINC
 40
1.0
  9
$FILLETRAD
 40
10.0
  9
$AUNITS
 70
0
  9
$AUPREC
 70
2
  9
$MENU
  1
.
  9
$ELEVATION
 40
0.0
  9
$PELEVATION
 40
0.0
  9
$THICKNESS
 40
0.0
  9
$LIMCHECK
 70
0
  9
$CHAMFERA
 40
0.0
  9
$CHAMFERB
 40
0.0
  9
$CHAMFERC
 40
0.0
  9
$CHAMFERD
 40
0.0
  9
$SKPOLY
 70
0
  9
$TDCREATE
 40
2460667.793263889
  9
$TDUCREATE
 40
2458532.153996898
  9
$TDUPDATE
 40
2460667.793263889
  9
$TDUUPDATE
 40
2458532.1544311
  9
$TDINDWG
 40
0.0
  9
$TDUSRTIMER
 40
0.0
  9
$USRTIMER
 70
1
  9
$ANGBASE
 50
0.0
  9
$ANGDIR
 70
0
  9
$PDMODE
 70
0
  9
$PDSIZE
 40
0.0
  9
$PLINEWID
 40
0.0
  9
$SPLFRAME
 70
0
  9
$SPLINETYPE
 70
6
  9
$SPLINESEGS
 70
8
  9
$HANDSEED
  5
3A
  9
$SURFTAB1
 70
6
  9
$SURFTAB2
 70
6
  9
$SURFTYPE
 70
6
  9
$SURFU
 70
6
  9
$SURFV
 70
6
  9
$UCSBASE
  2

  9
$UCSNAME
  2

  9
$UCSORG
 10
0.0
 20
0.0
 30
0.0
  9
$UCSXDIR
 10
1.0
 20
0.0
 30
0.0
  9
$UCSYDIR
 10
0.0
 20
1.0
 30
0.0
  9
$UCSORTHOREF
  2

  9
$UCSORTHOVIEW
 70
0
  9
$UCSORGTOP
 10
0.0
 20
0.0
 30
0.0
  9
$UCSORGBOTTOM
 10
0.0
 20
0.0
 30
0.0
  9
$UCSORGLEFT
 10
0.0
 20
0.0
 30
0.0
  9
$UCSORGRIGHT
 10
0.0
 20
0.0
 30
0.0
  9
$UCSORGFRONT
 10
0.0
 20
0.0
 30
0.0
  9
$UCSORGBACK
 10
0.0
 20
0.0
 30
0.0
  9
$PUCSBASE
  2

  9
$PUCSNAME
  2

  9
$PUCSORG
 10
0.0
 20
0.0
 30
0.0
  9
$PUCSXDIR
 10
1.0
 20
0.0
 30
0.0
  9
$PUCSYDIR
 10
0.0
 20
1.0
 30
0.0
  9
$PUCSORTHOREF
  2

  9
$PUCSORTHOVIEW
 70
0
  9
$PUCSORGTOP
 10
0.0
 20
0.0
 30
0.0
  9
$PUCSORGBOTTOM
 10
0.0
 20
0.0
 30
0.0
  9
$PUCSORGLEFT
 10
0.0
 20
0.0
 30
0.0
  9
$PUCSORGRIGHT
 10
0.0
 20
0.0
 30
0.0
  9
$PUCSORGFRONT
 10
0.0
 20
0.0
 30
0.0
  9
$PUCSORGBACK
 10
0.0
 20
0.0
 30
0.0
  9
$USERI1
 70
0
  9
$USERI2
 70
0
  9
$USERI3
 70
0
  9
$USERI4
 70
0
  9
$USERI5
 70
0
  9
$USERR1
 40
0.0
  9
$USERR2
 40
0.0
  9
$USERR3
 40
0.0
  9
$USERR4
 40
0.0
  9
$USERR5
 40
0.0
  9
$WORLDVIEW
 70
1
  9
$SHADEDGE
 70
3
  9
$SHADEDIF
 70
70
  9
$TILEMODE
 70
1
  9
$MAXACTVP
 70
64
  9
$PINSBASE
 10
0.0
 20
0.0
 30
0.0
  9
$PLIMCHECK
 70
0
  9
$PEXTMIN
 10
1e+20
 20
1e+20
 30
1e+20
  9
$PEXTMAX
 10
-1e+20
 20
-1e+20
 30
-1e+20
  9
$PLIMMIN
 10
0.0
 20
0.0
  9
$PLIMMAX
 10
420.0
 20
297.0
  9
$UNITMODE
 70
0
  9
$VISRETAIN
 70
1
  9
$PLINEGEN
 70
0
  9
$PSLTSCALE
 70
1
  9
$TREEDEPTH
 70
3020
  9
$CMLSTYLE
  2
Standard
  9
$CMLJUST
 70
0
  9
$CMLSCALE
 40
20.0
  9
$PROXYGRAPHICS
 70
1
  9
$MEASUREMENT
 70
1
  9
$CELWEIGHT
370
-1
  9
$ENDCAPS
280
0
  9
$JOINSTYLE
280
0
  9
$LWDISPLAY
290
0
  9
$INSUNITS
 70
6
  9
$HYPERLINKBASE
  1

  9
$STYLESHEET
  1

  9
$XEDIT
290
1
  9
$CEPSNTYPE
380
0
  9
$PSTYLEMODE
290
1
  9
$FINGERPRINTGUID
  2
{42CE8EB9-8DD5-48AF-BAEF-834342C6F21E}
  9
$VERSIONGUID
  2
{6003475B-9EE2-4D85-8723-206F7C807419}
  9
$EXTNAMES
290
1
  9
$PSVPSCALE
 40
0.0
  9
$OLESTARTUP
290
0
  9
$SORTENTS
280
127
  9
$INDEXCTL
280
0
  9
$HIDETEXT
280
1
  9
$XCLIPFRAME
280
1
  9
$HALOGAP
280
0
  9
$OBSCOLOR
 70
257
  9
$OBSLTYPE
280
0
  9
$INTERSECTIONDISPLAY
280
0
  9
$INTERSECTIONCOLOR
 70
257
  9
$DIMASSOC
280
2
  9
$PROJECTNAME
  1

  9
$CAMERADISPLAY
290
0
  9
$LENSLENGTH
 40
50.0
  9
$CAMERAHEIGHT
 40
0.0
  9
$STEPSPERSEC
 40
24.0
  9
$STEPSIZE
 40
100.0
  9
$3DDWFPREC
 40
2.0
  9
$PSOLWIDTH
 40
0.005
  9
$PSOLHEIGHT
 40
0.08
  9
$LOFTANG1
 40
1.570796326795
  9
$LOFTANG2
 40
1.570796326795
  9
$LOFTMAG1
 40
0.0
  9
$LOFTMAG2
 40
0.0
  9
$LOFTPARAM
 70
7
  9
$LOFTNORMALS
280
1
  9
$LATITUDE
 40
37.795
  9
$LONGITUDE
 40
-122.394
  9
$NORTHDIRECTION
 40
0.0
  9
$TIMEZONE
 70
-8000
  9
$LIGHTGLYPHDISPLAY
280
1
  9
$TILEMODELIGHTSYNCH
280
1
  9
$CMATERIAL
347
20
  9
$SOLIDHIST
280
0
  9
$SHOWHIST
280
1
  9
$DWFFRAME
280
2
  9
$DGNFRAME
280
2
  9
$REALWORLDSCALE
290
1
  9
$INTERFERECOLOR
 62
256
  9
$CSHADOW
280
0
  9
$SHADOWPLANELOCATION
 40
0.0
  0
ENDSEC
  0
SECTION
  2
CLASSES
  0
CLASS
  1
ACDBDICTIONARYWDFLT
  2
AcDbDictionaryWithDefault
  3
ObjectDBX Classes
 90
0
 91
0
280
0
281
0
  0
CLASS
  1
SUN
  2
AcDbSun
  3
SCENEOE
 90
1153
 91
0
280
0
281
0
  0
CLASS
  1
VISUALSTYLE
  2
AcDbVisualStyle
  3
ObjectDBX Classes
 90
4095
 91
0
280
0
281
0
  0
CLASS
  1
MATERIAL
  2
AcDbMaterial
  3
ObjectDBX Classes
 90
1153
 91
0
280
0
281
0
  0
CLASS
  1
SCALE
  2
AcDbScale
  3
ObjectDBX Classes
 90
1153
 91
0
280
0
281
0
  0
CLASS
  1
TABLESTYLE
  2
AcDbTableStyle
  3
ObjectDBX Classes
 90
4095
 91
0
280
0
281
0
  0
CLASS
  1
MLEADERSTYLE
  2
AcDbMLeaderStyle
  3
ACDB_MLEADERSTYLE_CLASS
 90
4095
 91
0
280
0
281
0
  0
CLASS
  1
DICTIONARYVAR
  2
AcDbDictionaryVar
  3
ObjectDBX Classes
 90
0
 91
0
280
0
281
0
  0
CLASS
  1
CELLSTYLEMAP
  2
AcDbCellStyleMap
  3
ObjectDBX Classes
 90
1152
 91
0
280
0
281
0
  0
CLASS
  1
MENTALRAYRENDERSETTINGS
  2
AcDbMentalRayRenderSettings
  3
SCENEOE
 90
1024
 91
0
280
0
281
0
  0
CLASS
  1
ACDBDETAILVIEWSTYLE
  2
AcDbDetailViewStyle
  3
ObjectDBX Classes
 90
1025
 91
0
280
0
281
0
  0
CLASS
  1
ACDBSECTIONVIEWSTYLE
  2
AcDbSectionViewStyle
  3
ObjectDBX Classes
 90
1025
 91
0
280
0
281
0
  0
CLASS
  1
RASTERVARIABLES
  2
AcDbRasterVariables
  3
ISM
 90
0
 91
0
280
0
281
0
  0
CLASS
  1
ACDBPLACEHOLDER
  2
AcDbPlaceHolder
  3
ObjectDBX Classes
 90
0
 91
0
280
0
281
0
  0
CLASS
  1
LAYOUT
  2
AcDbLayout
  3
ObjectDBX Classes
 90
0
 91
0
280
0
281
0
  0
ENDSEC
  0
SECTION
  2
TABLES
  0
TABLE
  2
VPORT
  5
8
330
0
100
AcDbSymbolTable
 70
1
  0
VPORT
  5
23
330
8
100
AcDbSymbolTableRecord
100
AcDbViewportTableRecord
  2
*Active
 70
0
 10
0.0
 20
0.0
 11
1.0
 21
1.0
 12
0.0
 22
0.0
 13
0.0
 23
0.0
 14
0.5
 24
0.5
 15
0.5
 25
0.5
 16
0.0
 26
0.0
 36
1.0
 17
0.0
 27
0.0
 37
0.0
 40
1000.0
 41
1.34
 42
50.0
 43
0.0
 44
0.0
 50
0.0
 51
0.0
 71
0
 72
1000
 73
1
 74
3
 75
0
 76
0
 77
0
 78
0
281
0
 65
0
146
0.0
  0
ENDTAB
  0
TABLE
  2
LTYPE
  5
2
330
0
100
AcDbSymbolTable
 70
3
  0
LTYPE
  5
24
330
2
100
AcDbSymbolTableRecord
100
AcDbLinetypeTableRecord
  2
ByBlock
 70
0
  3

 72
65
 73
0
 40
0.0
  0
LTYPE
  5
25
330
2
100
AcDbSymbolTableRecord
100
AcDbLinetypeTableRecord
  2
ByLayer
 70
0
  3

 72
65
 73
0
 40
0.0
  0
LTYPE
  5
26
330
2
100
AcDbSymbolTableRecord
100
AcDbLinetypeTableRecord
  2
Continuous
 70
0
  3

 72
65
 73
0
 40
0.0
  0
ENDTAB
  0
TABLE
  2
LAYER
  5
1
330
0
100
AcDbSymbolTable
 70
2
  0
LAYER
  5
27
330
1
100
AcDbSymbolTableRecord
100
AcDbLayerTableRecord
  2
0
 70
0
 62
7
  6
Continuous
370
-3
390
13
347
21
  0
LAYER
  5
28
330
1
100
AcDbSymbolTableRecord
100
AcDbLayerTableRecord
  2
Defpoints
 70
0
 62
7
  6
Continuous
290
0
370
-3
390
13
347
21
  0
ENDTAB
  0
TABLE
  2
STYLE
  5
5
330
0
100
AcDbSymbolTable
 70
1
  0
STYLE
  5
29
330
5
100
AcDbSymbolTableRecord
100
AcDbTextStyleTableRecord
  2
Standard
 70
0
 40
0.0
 41
1.0
 50
0.0
 71
0
 42
2.5
  3
txt
  4

  0
ENDTAB
  0
TABLE
  2
VIEW
  5
7
330
0
100
AcDbSymbolTable
 70
0
  0
ENDTAB
  0
TABLE
  2
UCS
  5
6
330
0
100
AcDbSymbolTable
 70
0
  0
ENDTAB
  0
TABLE
  2
APPID
  5
3
330
0
100
AcDbSymbolTable
 70
3
  0
APPID
  5
2A
330
3
100
AcDbSymbolTableRecord
100
AcDbRegAppTableRecord
  2
ACAD
 70
0
  0
APPID
  5
37
330
3
100
AcDbSymbolTableRecord
100
AcDbRegAppTableRecord
  2
HATCHBACKGROUNDCOLOR
 70
0
  0
APPID
  5
38
330
3
100
AcDbSymbolTableRecord
100
AcDbRegAppTableRecord
  2
EZDXF
 70
0
  0
ENDTAB
  0
TABLE
  2
DIMSTYLE
  5
4
330
0
100
AcDbSymbolTable
 70
1
100
AcDbDimStyleTable
  0
DIMSTYLE
105
2B
330
4
100
AcDbSymbolTableRecord
100
AcDbDimStyleTableRecord
  2
Standard
 70
0
 40
1.0
 41
2.5
 42
0.625
 43
3.75
 44
1.25
 45
0.0
 46
0.0
 47
0.0
 48
0.0
 49
2.5
140
2.5
141
2.5
142
0.0
143
0.03937007874
144
1.0
145
0.0
146
1.0
147
0.625
148
0.0
 69
0
 70
0
 71
0
 72
0
 73
0
 74
0
 75
0
 76
0
 77
1
 78
8
 79
3
170
0
171
3
172
1
173
0
174
0
175
0
176
0
177
0
178
0
179
2
271
2
272
2
273
2
274
3
275
0
276
0
277
2
278
44
279
0
280
0
281
0
282
0
283
0
284
8
285
0
286
0
288
0
289
3
290
0
371
-2
372
-2
  0
ENDTAB
  0
TABLE
  2
BLOCK_RECORD
  5
9
330
0
100
AcDbSymbolTable
 70
2
  0
BLOCK_RECORD
  5
17
330
9
100
AcDbSymbolTableRecord
100
AcDbBlockTableRecord
  2
*Model_Space
340
1A
 70
0
280
1
281
0
  0
BLOCK_RECORD
  5
1B
330
9
100
AcDbSymbolTableRecord
100
AcDbBlockTableRecord
  2
*Paper_Space
340
1E
 70
0
280
1
281
0
  0
ENDTAB
  0
ENDSEC
  0
SECTION
  2
BLOCKS
  0
BLOCK
  5
18
330
17
100
AcDbEntity
  8
0
100
AcDbBlockBegin
  2
*Model_Space
 70
0
 10
0.0
 20
0.0
 30
0.0
  3
*Model_Space
  1

  0
ENDBLK
  5
19
330
17
100
AcDbEntity
  8
0
100
AcDbBlockEnd
  0
BLOCK
  5
1C
330
1B
100
AcDbEntity
  8
0
100
AcDbBlockBegin
  2
*Paper_Space
 70
0
 10
0.0
 20
0.0
 30
0.0
  3
*Paper_Space
  1

  0
ENDBLK
  5
1D
330
1B
100
AcDbEntity
  8
0
100
AcDbBlockEnd
  0
ENDSEC
  0
SECTION
  2
ENTITIES
  0
LWPOLYLINE
  5
2F
330
17
100
AcDbEntity
  8
0
100
AcDbPolyline
 90
30
 70
0
 10
2.765486381079839
 20
-1.1198779485883201
 10
2.9311274924466
 20
-1.1342815234897776
 10
3.284015077532308
 20
-1.1198779485883201
 10
3.3704365269410532
 20
-1.0910707987854051
 10
3.4136472516454255
 20
-1.011851136827389
 10
3.4136472516454255
 20
-0.5077260152763767
 10
3.3992436767439678
 20
-0.46451529057200425
 10
3.3488311645888666
 20
-0.42130456586763176
 10
3.320024014785952
 20
-0.3492866913603443
 10
3.3128222273352232
 20
0.010802681176093065
 10
3.284015077532308
 20
0.04681161842973669
 10
3.211997203025021
 20
0.07561876823265168
 10
3.21919899047575
 20
0.5653403148822065
 10
3.154382903419191
 20
0.6733671266431376
 10
3.147181115968462
 20
1.0262547117288463
 10
3.1183739661655467
 20
1.0622636489824901
 10
3.0823650289119033
 20
1.0766672238839474
 10
2.981540004601701
 20
1.0766672238839474
 10
2.923925704995871
 20
1.0118511368273886
 10
2.9167239175451423
 20
0.6877707015445953
 10
2.8519078304885834
 20
0.5941474646851215
 10
2.8447060430378546
 20
0.07561876823265168
 10
2.75828459362911
 20
0.04681161842973669
 10
2.7294774438261946
 20
0.010802681176093065
 10
2.7294774438261946
 20
-0.34208490390961555
 10
2.70067029402328
 20
-0.414102778416903
 10
2.6358542069667212
 20
-0.47891886547346174
 10
2.6286524195159924
 20
-1.0478600740810327
 10
2.664661356769636
 20
-1.0910707987854051
 10
2.765486381079839
 20
-1.1198779485883201
  0
LWPOLYLINE
  5
30
330
17
100
AcDbEntity
  8
0
100
AcDbPolyline
 90
30
 70
0
 10
1.9588861865982192
 20
-1.1630886732926926
 10
2.3549844963883
 20
-1.1702904607434215
 10
2.484616670501417
 20
-1.155886885841964
 10
2.5710381199101624
 20
-1.127079736039049
 10
2.6142488446145347
 20
-1.0550618615317615
 10
2.607047057163806
 20
-0.5509367399807492
 10
2.592643482262349
 20
-0.5077260152763767
 10
2.542230970107247
 20
-0.46451529057200425
 10
2.5134238203043324
 20
-0.40690099096617427
 10
2.4990202454028747
 20
-0.03240804352827942
 10
2.4630113081492313
 20
0.010802681176093065
 10
2.3981952210926725
 20
0.039609830979008054
 10
2.3909934336419436
 20
0.5437349525300201
 10
2.3333791340361136
 20
0.666165339192409
 10
2.3333791340361136
 20
0.9614386246722875
 10
2.2901684093317414
 20
1.0334564991795752
 10
2.2397558971766403
 20
1.0478600740810324
 10
2.138930872866437
 20
1.0406582866303036
 10
2.088518360711336
 20
0.9902457744752025
 10
2.088518360711336
 20
0.6733671266431376
 10
2.030904061105506
 20
0.5653403148822065
 10
2.030904061105506
 20
0.032408043528279196
 10
1.9372808242460327
 20
-0.003600893725364429
 10
1.908473674443118
 20
-0.039609830979008276
 10
1.915675461893846
 20
-0.37089205371253053
 10
1.8796665246402027
 20
-0.471717078022733
 10
1.8292540124851016
 20
-0.529331377628563
 10
1.8292540124851016
 20
-1.0838690113346765
 10
1.865262949738745
 20
-1.1342815234897776
 10
1.9588861865982192
 20
-1.1630886732926926
  0
LWPOLYLINE
  5
31
330
17
100
AcDbEntity
  8
0
100
AcDbPolyline
 90
33
 70
0
 10
1.1234788423136841
 20
-1.1342815234897776
 10
1.4835682148501217
 20
-1.1342815234897776
 10
1.6780164760197982
 20
-1.098272586236134
 10
1.7212272007241705
 20
-1.0550618615317615
 10
1.7356307756256282
 20
-1.011851136827389
 10
1.7212272007241705
 20
-0.9398332623201016
 10
1.7212272007241705
 20
-0.5077260152763767
 10
1.7068236258227127
 20
-0.46451529057200425
 10
1.642007538766154
 20
-0.40690099096617427
 10
1.6276039638646962
 20
-0.37089205371253053
 10
1.6132003889632394
 20
0.010802681176093065
 10
1.584393239160324
 20
0.04681161842973669
 10
1.4979717897515794
 20
0.07561876823265168
 10
1.4979717897515794
 20
0.522129590177834
 10
1.4835682148501217
 20
0.608551039586579
 10
1.4475592775964783
 20
0.666165339192409
 10
1.4403574901457494
 20
0.9902457744752025
 10
1.4259539152442917
 20
1.0334564991795752
 10
1.3755414030891906
 20
1.0766672238839474
 10
1.245909228976073
 20
1.0766672238839474
 10
1.2099002917224295
 20
1.0622636489824901
 10
1.181093141919514
 20
1.0262547117288463
 10
1.181093141919514
 20
0.6949724889953237
 10
1.1378824172151418
 20
0.608551039586579
 10
1.1450842046658707
 20
0.06841698078192304
 10
1.0586627552571253
 20
0.039609830979008054
 10
1.0226538180034819
 20
-0.003600893725364429
 10
1.0298556054542107
 20
-0.3492866913603443
 10
1.0010484556512953
 20
-0.4285063533183605
 10
0.9434341560454653
 20
-0.49332244037491924
 10
0.9506359434961942
 20
-1.0622636489824901
 10
1.0082502431020242
 20
-1.1126761611375915
 10
1.1234788423136841
 20
-1.1342815234897776
  0
LWPOLYLINE
  5
32
330
17
100
AcDbEntity
  8
0
100
AcDbPolyline
 90
31
 70
0
 10
0.19444826116967606
 20
-1.1126761611375915
 10
0.338484010184251
 20
-1.127079736039049
 10
0.7273805325236031
 20
-1.1198779485883201
 10
0.7993984070308908
 20
-1.098272586236134
 10
0.8354073442845342
 20
-1.0622636489824901
 10
0.8498109191859919
 20
-1.0190529242781177
 10
0.8570127066367208
 20
-0.5221295901778342
 10
0.8426091317352631
 20
-0.47891886547346174
 10
0.7849948321294331
 20
-0.42130456586763176
 10
0.7705912572279754
 20
-0.3636902662618018
 10
0.7633894697772474
 20
0.003600893725364207
 10
0.7273805325236031
 20
0.04681161842973669
 10
0.6625644454670443
 20
0.07561876823265168
 10
0.6697662329177732
 20
0.5725421023329351
 10
0.6409590831148586
 20
0.637358189389494
 10
0.6409590831148586
 20
0.9974475619259313
 10
0.6265555082134009
 20
1.0406582866303036
 10
0.5545376337061132
 20
1.0838690113346763
 10
0.41050188469153825
 20
1.0838690113346763
 10
0.338484010184251
 20
1.0190529242781174
 10
0.33128222273352215
 20
0.666165339192409
 10
0.30247507293060716
 20
0.608551039586579
 10
0.2952732854798783
 20
0.08282055568338054
 10
0.20165004862040492
 20
0.04681161842973669
 10
0.17284289881748993
 20
0.003600893725364207
 10
0.17284289881748993
 20
-0.3204795415574293
 10
0.13683396156384608
 20
-0.414102778416903
 10
0.07921966195801611
 20
-0.471717078022733
 10
0.06481608705655884
 20
-1.040658286630304
 10
0.10082502431020224
 20
-1.0838690113346765
 10
0.19444826116967606
 20
-1.1126761611375915
  0
LWPOLYLINE
  5
33
330
17
100
AcDbEntity
  8
0
100
AcDbPolyline
 90
31
 70
0
 10
-0.6193537207626725
 20
-1.0910707987854051
 10
-0.24486077332477763
 20
-1.098272586236134
 10
-0.05761429960582998
 20
-1.0766672238839476
 10
-0.03600893725364385
 20
-1.0550618615317615
 10
0.014403574901457272
 20
-1.0478600740810327
 10
0.05041251215510112
 20
-0.9758421995737452
 10
0.02880714980291499
 20
-0.8966225376157291
 10
0.04321072470437226
 20
-0.8606136003620852
 10
0.03600893725364385
 20
-0.5221295901778342
 10
0.014403574901457272
 20
-0.4285063533183605
 10
-0.03600893725364385
 20
-0.38529562861398803
 10
-0.05761429960582998
 20
-0.34208490390961555
 10
-0.06481608705655884
 20
-0.003600893725364429
 10
-0.1080268117609311
 20
0.08282055568338054
 10
-0.18724647371894765
 20
0.11162770548629553
 10
-0.19444826116967606
 20
0.522129590177834
 10
-0.22325541097259105
 20
0.7381832136996964
 10
-0.22325541097259105
 20
0.9974475619259313
 10
-0.24486077332477763
 20
1.0766672238839474
 10
-0.3168786478320649
 20
1.1270797360390485
 10
-0.4897215466495548
 20
1.1198779485883201
 10
-0.5545376337061136
 20
1.0550618615317613
 10
-0.5545376337061136
 20
0.10442591803556667
 10
-0.6265555082134009
 20
0.07561876823265168
 10
-0.6625644454670447
 20
0.032408043528279196
 10
-0.6553626580163159
 20
-0.2988741792052432
 10
-0.6841698078192309
 20
-0.3924974160647168
 10
-0.7417841074250608
 20
-0.4573135031212755
 10
-0.7345823199743324
 20
-1.0262547117288465
 10
-0.6985733827206886
 20
-1.069465436433219
 10
-0.6193537207626725
 20
-1.0910707987854051
  0
LWPOLYLINE
  5
34
330
17
100
AcDbEntity
  8
0
100
AcDbPolyline
 90
31
 70
0
 10
-1.5123753646530367
 20
-1.0478600740810327
 10
-1.3683396156384617
 20
-1.0622636489824901
 10
-0.9578377309469235
 20
-1.0550618615317615
 10
-0.8714162815381785
 20
-1.0334564991795752
 10
-0.8354073442845347
 20
-0.9974475619259315
 10
-0.821003769383077
 20
-0.954236837221559
 10
-0.8354073442845347
 20
-0.8966225376157291
 10
-0.821003769383077
 20
-0.45011171567054675
 10
-0.8354073442845347
 20
-0.40690099096617427
 10
-0.9146270062425508
 20
-0.31327775410670067
 10
-0.9146270062425508
 20
-0.2628652419515993
 10
-0.9362323685947369
 20
-0.2124527297964982
 10
-0.9146270062425508
 20
-0.14763664273993937
 10
-0.9146270062425508
 20
0.04681161842973669
 10
-0.9434341560454658
 20
0.10442591803556667
 10
-1.0298556054542107
 20
0.14043485528921051
 10
-1.0298556054542107
 20
1.0406582866303036
 10
-1.0442591803556684
 20
1.0838690113346763
 10
-1.0946716925107696
 20
1.1342815234897774
 10
-1.1522859921165995
 20
1.1558868858419635
 10
-1.3179271034833606
 20
1.1486850983912351
 10
-1.3971467654413767
 20
1.0766672238839474
 10
-1.3971467654413767
 20
0.14043485528921051
 10
-1.4835682148501217
 20
0.11162770548629553
 10
-1.5123753646530367
 20
0.07561876823265168
 10
-1.5195771521037655
 20
-0.2844706043037857
 10
-1.5411825144559517
 20
-0.34208490390961555
 10
-1.6059986015125105
 20
-0.414102778416903
 10
-1.6132003889632394
 20
-0.983043987024474
 10
-1.5771914517095955
 20
-1.0262547117288465
 10
-1.5123753646530367
 20
-1.0478600740810327
  0
LWPOLYLINE
  5
35
330
17
100
AcDbEntity
  8
0
100
AcDbPolyline
 90
25
 70
0
 10
-2.427002370895588
 20
-1.0190529242781177
 10
-2.074114785809879
 20
-1.0478600740810327
 10
-1.793245075231458
 20
-1.040658286630304
 10
-1.7212272007241705
 20
-1.0262547117288465
 10
-1.6852182634705268
 20
-0.9614386246722877
 10
-1.6852182634705268
 20
-0.586945677234393
 10
-1.6636129011183405
 20
-0.500524227825648
 10
-1.6852182634705268
 20
-0.42130456586763176
 10
-1.728428988174899
 20
-0.3492866913603443
 10
-1.728428988174899
 20
0.061215193331194184
 10
-1.7716397128792716
 20
0.11162770548629553
 10
-1.843657587386559
 20
0.13323306783848166
 10
-1.822052225034373
 20
1.0766672238839474
 10
-1.8364557999358304
 20
1.1198779485883201
 10
-1.8940700995416604
 20
1.1630886732926924
 10
-2.1461326603171664
 20
1.1702904607434212
 10
-2.189343385021539
 20
1.1486850983912351
 10
-2.2253523222751825
 20
1.1054743736868624
 10
-2.254159472078098
 20
0.14043485528921051
 10
-2.3477827089375713
 20
0.12603128038775302
 10
-2.3981952210926725
 20
0.07561876823265168
 10
-2.4053970085434013
 20
-0.2988741792052432
 10
-2.4630113081492313
 20
-0.414102778416903
 10
-2.47021309559996
 20
-0.9758421995737452
 10
-2.427002370895588
 20
-1.0190529242781177
  0
LWPOLYLINE
  5
36
330
17
100
AcDbEntity
  8
0
100
AcDbPolyline
 90
25
 70
0
 10
-3.363234739490325
 20
-1.0334564991795752
 10
-2.693468506572551
 20
-1.0478600740810327
 10
-2.650257781868179
 20
-1.0046493493766602
 10
-2.64305599441745
 20
-0.9470350497708302
 10
-2.6574595693189074
 20
-0.8966225376157291
 10
-2.6358542069667212
 20
-0.7813939384040691
 10
-2.6358542069667212
 20
-0.5653403148822067
 10
-2.614248844614535
 20
-0.5077260152763767
 10
-2.6070470571638062
 20
0.0180044686268217
 10
-2.64305599441745
 20
0.08282055568338054
 10
-2.7366792312769235
 20
0.09722413058483803
 10
-2.751082806178381
 20
0.11162770548629553
 10
-2.729477443826195
 20
1.0406582866303036
 10
-2.7438810187276523
 20
1.0838690113346763
 10
-2.808697105784211
 20
1.1414833109405063
 10
-3.154382903419191
 20
1.1486850983912351
 10
-3.190391840672835
 20
1.1270797360390485
 10
-3.21919899047575
 20
1.0838690113346763
 10
-3.240804352827936
 20
0.11882949293702416
 10
-3.348831164588867
 20
0.10442591803556667
 10
-3.399243676743968
 20
0.05401340588046555
 10
-3.413647251645426
 20
-0.5221295901778342
 10
-3.39204188929324
 20
-0.5653403148822067
 10
-3.39204188929324
 20
-0.9974475619259315
 10
-3.363234739490325
 20
-1.0334564991795752
  0
ENDSEC
  0
SECTION
  2
OBJECTS
  0
DICTIONARY
  5
A
330
0
100
AcDbDictionary
280
0
281
1
  3
ACAD_COLOR
350
B
  3
ACAD_GROUP
350
C
  3
ACAD_LAYOUT
350
D
  3
ACAD_MATERIAL
350
E
  3
ACAD_MLEADERSTYLE
350
F
  3
ACAD_MLINESTYLE
350
10
  3
ACAD_PLOTSETTINGS
350
11
  3
ACAD_PLOTSTYLENAME
350
12
  3
ACAD_SCALELIST
350
14
  3
ACAD_TABLESTYLE
350
15
  3
ACAD_VISUALSTYLE
350
16
  3
EZDXF_META
350
2D
  0
DICTIONARY
  5
B
330
A
100
AcDbDictionary
280
0
281
1
  0
DICTIONARY
  5
C
330
A
100
AcDbDictionary
280
0
281
1
  0
DICTIONARY
  5
D
330
A
100
AcDbDictionary
280
0
281
1
  3
Model
350
1A
  3
Layout1
350
1E
  0
DICTIONARY
  5
E
330
A
100
AcDbDictionary
280
0
281
1
  3
ByBlock
350
1F
  3
ByLayer
350
20
  3
Global
350
21
  0
DICTIONARY
  5
F
330
A
100
AcDbDictionary
280
0
281
1
  3
Standard
350
2C
  0
DICTIONARY
  5
10
330
A
100
AcDbDictionary
280
0
281
1
  3
Standard
350
22
  0
DICTIONARY
  5
11
330
A
100
AcDbDictionary
280
0
281
1
  0
ACDBDICTIONARYWDFLT
  5
12
330
A
100
AcDbDictionary
280
0
281
1
  3
Normal
350
13
100
AcDbDictionaryWithDefault
340
13
  0
ACDBPLACEHOLDER
  5
13
330
12
  0
DICTIONARY
  5
14
330
A
100
AcDbDictionary
280
0
281
1
  0
DICTIONARY
  5
15
330
A
100
AcDbDictionary
280
0
281
1
  0
DICTIONARY
  5
16
330
A
100
AcDbDictionary
280
0
281
1
  0
LAYOUT
  5
1A
330
D
100
AcDbPlotSettings
  1

  4
A3
  6

 40
7.5
 41
20.0
 42
7.5
 43
20.0
 44
420.0
 45
297.0
 46
0.0
 47
0.0
 48
0.0
 49
0.0
140
0.0
141
0.0
142
1.0
143
1.0
 70
1024
 72
1
 73
0
 74
5
  7

 75
16
 76
0
 77
2
 78
300
147
1.0
148
0.0
149
0.0
100
AcDbLayout
  1
Model
 70
1
 71
0
 10
0.0
 20
0.0
 11
420.0
 21
297.0
 12
0.0
 22
0.0
 32
0.0
 14
1e+20
 24
1e+20
 34
1e+20
 15
-1e+20
 25
-1e+20
 35
-1e+20
146
0.0
 13
0.0
 23
0.0
 33
0.0
 16
1.0
 26
0.0
 36
0.0
 17
0.0
 27
1.0
 37
0.0
 76
1
330
17
  0
LAYOUT
  5
1E
330
D
100
AcDbPlotSettings
  1

  4
A3
  6

 40
7.5
 41
20.0
 42
7.5
 43
20.0
 44
420.0
 45
297.0
 46
0.0
 47
0.0
 48
0.0
 49
0.0
140
0.0
141
0.0
142
1.0
143
1.0
 70
0
 72
1
 73
0
 74
5
  7

 75
16
 76
0
 77
2
 78
300
147
1.0
148
0.0
149
0.0
100
AcDbLayout
  1
Layout1
 70
1
 71
1
 10
0.0
 20
0.0
 11
420.0
 21
297.0
 12
0.0
 22
0.0
 32
0.0
 14
1e+20
 24
1e+20
 34
1e+20
 15
-1e+20
 25
-1e+20
 35
-1e+20
146
0.0
 13
0.0
 23
0.0
 33
0.0
 16
1.0
 26
0.0
 36
0.0
 17
0.0
 27
1.0
 37
0.0
 76
1
330
1B
  0
MATERIAL
  5
1F
102
{ACAD_REACTORS
330
E
102
}
330
E
100
AcDbMaterial
  1
ByBlock
  2

 70
0
 40
1.0
 71
1
 41
1.0
 91
-1023410177
 42
1.0
 72
1
  3

 73
1
 74
1
 75
1
 44
0.5
 73
0
 45
1.0
 46
1.0
 77
1
  4

 78
1
 79
1
170
1
 48
1.0
171
1
  6

172
1
173
1
174
1
140
1.0
141
1.0
175
1
  7

176
1
177
1
178
1
143
1.0
179
1
  8

270
1
271
1
272
1
145
1.0
146
1.0
273
1
  9

274
1
275
1
276
1
 42
1.0
 72
1
  3

 73
1
 74
1
 75
1
 94
63
  0
MATERIAL
  5
20
102
{ACAD_REACTORS
330
E
102
}
330
E
100
AcDbMaterial
  1
ByLayer
  2

 70
0
 40
1.0
 71
1
 41
1.0
 91
-1023410177
 42
1.0
 72
1
  3

 73
1
 74
1
 75
1
 44
0.5
 73
0
 45
1.0
 46
1.0
 77
1
  4

 78
1
 79
1
170
1
 48
1.0
171
1
  6

172
1
173
1
174
1
140
1.0
141
1.0
175
1
  7

176
1
177
1
178
1
143
1.0
179
1
  8

270
1
271
1
272
1
145
1.0
146
1.0
273
1
  9

274
1
275
1
276
1
 42
1.0
 72
1
  3

 73
1
 74
1
 75
1
 94
63
  0
MATERIAL
  5
21
102
{ACAD_REACTORS
330
E
102
}
330
E
100
AcDbMaterial
  1
Global
  2

 70
0
 40
1.0
 71
1
 41
1.0
 91
-1023410177
 42
1.0
 72
1
  3

 73
1
 74
1
 75
1
 44
0.5
 73
0
 45
1.0
 46
1.0
 77
1
  4

 78
1
 79
1
170
1
 48
1.0
171
1
  6

172
1
173
1
174
1
140
1.0
141
1.0
175
1
  7

176
1
177
1
178
1
143
1.0
179
1
  8

270
1
271
1
272
1
145
1.0
146
1.0
273
1
  9

274
1
275
1
276
1
 42
1.0
 72
1
  3

 73
1
 74
1
 75
1
 94
63
  0
MLINESTYLE
  5
22
102
{ACAD_REACTORS
330
10
102
}
330
10
100
AcDbMlineStyle
  2
Standard
 70
0
  3

 62
256
 51
90.0
 52
90.0
 71
2
 49
0.5
 62
256
  6
BYLAYER
 49
-0.5
 62
256
  6
BYLAYER
  0
MLEADERSTYLE
  5
2C
102
{ACAD_REACTORS
330
F
102
}
330
F
100
AcDbMLeaderStyle
179
2
170
2
171
1
172
0
 90
2
 40
0.0
 41
0.0
173
1
 91
-1056964608
 92
-2
290
1
 42
2.0
291
1
 43
8.0
  3
Standard
 44
4.0
300

342
29
174
1
175
1
176
0
178
1
 93
-1056964608
 45
4.0
292
0
297
0
 46
4.0
 94
-1056964608
 47
1.0
 49
1.0
140
1.0
294
1
141
0.0
177
0
142
1.0
295
0
296
0
143
3.75
271
0
272
9
273
9
  0
DICTIONARY
  5
2D
330
A
100
AcDbDictionary
280
1
281
1
  3
CREATED_BY_EZDXF
350
2E
  3
WRITTEN_BY_EZDXF
350
39
  0
DICTIONARYVAR
  5
2E
330
2D
100
DictionaryVariables
280
0
  1
1.3.5 @ 2024-12-23T01:02:18.164190+00:00
  0
DICTIONARYVAR
  5
39
330
2D
100
DictionaryVariables
280
0
  1
1.3.5 @ 2024-12-23T01:02:18.171023+00:00
  0
ENDSEC
  0
EOF
